<?xml version="1.0" encoding="utf-8" ?>
<svg width="1058" height="1058" viewBox="0 0 1058 1058">
	<path fill="#FEFEFE" transform="scale(1.03374 1.03374)" d="M607.001 474.723C616.737 474.826 624.943 476.837 633.897 480.679C636.591 481.834 639.54 483.006 640.683 485.898C640.555 490.84 635.798 496.267 633.01 500.145C627.121 496.677 619.428 493.321 612.665 492.152C607.92 491.332 603.405 491.737 599.451 494.747C597.965 495.879 596.793 497.429 596.739 499.37C596.505 507.903 618.065 511.093 624.175 513.455C628.722 515.213 633.053 517.612 636.351 521.275C640.96 526.393 643.047 533.611 642.441 540.426C641.903 546.47 638.836 551.602 634.127 555.364C625.542 562.221 614.515 563.166 604.011 561.863C591.731 560.085 582.542 556.375 572.09 549.761C575.83 545.736 577.039 539.569 580.747 535.908C581.23 535.431 581.743 534.825 582.466 534.988C584.55 535.459 587.176 537.449 589.13 538.528C596.409 542.545 605.229 545.533 613.647 545.121C616.255 544.993 618.747 544.15 620.436 542.067C621.616 540.613 622.56 538.837 622.167 536.908C620.645 529.435 592.228 524.281 585.26 518.39C581.343 515.079 577.132 508.562 576.804 503.365C576.374 496.567 578.686 489.422 583.26 484.362C589.253 477.733 598.382 475.216 607.001 474.723Z"/>
	<path fill="#FEFEFE" transform="scale(1.03374 1.03374)" d="M518.91 475.146C528.424 474.011 538.499 475.129 546.923 479.939C556.695 485.518 562.765 494.756 565.658 505.46C567.093 510.771 569.017 520.302 566.141 525.248C565.285 526.014 564.634 526.266 563.52 526.398C557.435 527.117 550.675 526.502 544.52 526.485Q524.796 526.371 505.072 526.494C505.434 528.367 505.816 530.227 506.576 531.987Q506.77 532.442 506.986 532.887Q507.202 533.333 507.441 533.766Q507.679 534.2 507.939 534.621Q508.198 535.042 508.479 535.45Q508.76 535.858 509.06 536.251Q509.361 536.644 509.681 537.021Q510.001 537.399 510.339 537.76Q510.678 538.121 511.034 538.464Q511.39 538.808 511.763 539.133Q512.136 539.459 512.525 539.765Q512.913 540.071 513.317 540.357Q513.721 540.644 514.138 540.909Q514.555 541.175 514.986 541.42Q515.416 541.664 515.858 541.887Q516.3 542.109 516.752 542.31Q517.205 542.51 517.667 542.687C524.983 545.487 533.362 544.578 540.397 541.422C542.754 540.365 545.242 538.586 547.661 537.827C548.908 537.436 549.146 537.721 550.177 538.346C553.729 541.746 556.801 545.516 559.934 549.293C554.253 554.996 547.499 559.373 539.616 561.214C526.768 564.216 511.941 562.492 500.679 555.421C491.47 549.639 485.463 541.111 483.13 530.498C480.49 518.493 481.827 504.812 488.673 494.386C495.763 483.586 506.502 477.713 518.91 475.146ZM521.549 492.705C514.958 494.628 510.355 497.931 507.091 504.078C505.957 506.216 505.163 508.495 504.371 510.775Q517.612 510.41 530.858 510.545C536.41 510.605 542.008 510.515 547.55 510.862C546.135 504.551 544.011 499.249 538.218 495.686C533.045 492.505 527.413 492.218 521.549 492.705Z"/>
	<defs>
		<linearGradient id="gradient_0" gradientUnits="userSpaceOnUse" x1="205.02927" y1="505.5965" x2="131.69998" y2="389.73444">
			<stop offset="0" stop-color="#7BDEF0"/>
			<stop offset="1" stop-color="white"/>
		</linearGradient>
	</defs>
	<path fill="url(#gradient_0)" transform="scale(1.03374 1.03374)" d="M90.5303 576.983C87.2534 573.207 85.758 565.848 85.161 560.975C84.3133 554.056 84.6145 546.871 84.5997 539.904L84.5548 506.722L84.4354 464.096C84.4118 456.261 84.0755 448.27 84.5154 440.449Q84.58 439.353 84.699 438.261Q84.818 437.169 84.991 436.084Q85.1641 435 85.3909 433.925Q85.6177 432.85 85.8975 431.788Q86.1774 430.726 86.5097 429.679Q86.842 428.633 87.2259 427.604Q87.6098 426.575 88.0444 425.566Q88.4789 424.557 88.9631 423.571Q89.4472 422.585 89.9797 421.625Q90.5123 420.664 91.0919 419.731Q91.6714 418.798 92.2967 417.896Q92.9219 416.992 93.5912 416.122Q94.2606 415.251 94.9723 414.414Q95.6841 413.578 96.4366 412.778Q97.189 411.978 97.9803 411.216Q98.7716 410.454 99.5997 409.733C105.588 404.417 113.377 400.556 121.297 399.251C129.362 397.921 138.091 398.588 146.257 398.633L186.934 398.8L244.575 398.956C253.929 398.951 263.424 398.313 272.758 398.915C275.645 399.722 278.549 399.604 281.515 399.821C288.161 400.306 293.621 401.783 299.508 404.885C297.095 408.847 295.451 411.868 294.565 416.498C294.549 416.579 294.53 416.659 294.513 416.74C290.895 414.997 288.366 413.636 284.238 413.986C273.139 413.444 261.874 413.94 250.752 413.959L186.645 413.97L147.922 413.872C140.08 413.836 132.009 413.263 124.232 414.368C118.891 415.126 114.571 417.13 110.528 420.72Q109.88 421.293 109.262 421.898Q108.644 422.502 108.057 423.138Q107.471 423.773 106.917 424.437Q106.363 425.101 105.843 425.792Q105.323 426.483 104.839 427.199Q104.355 427.915 103.907 428.655Q103.459 429.395 103.05 430.157Q102.64 430.918 102.269 431.699Q101.899 432.481 101.568 433.279Q101.237 434.078 100.947 434.893Q100.656 435.708 100.408 436.536Q100.159 437.364 99.9521 438.203Q99.7454 439.043 99.5813 439.892Q99.4173 440.741 99.2962 441.597Q99.1751 442.454 99.0974 443.315Q99.0196 444.176 98.9854 445.04C98.2437 464.247 99.141 483.785 99.1017 503.027L99.0263 536.953C99.0176 543.356 98.7597 549.922 99.2333 556.303C99.4806 559.634 100.067 562.521 101.363 565.628C100.596 566.638 100.082 566.773 98.9601 567.278C95.5307 568.824 94.5151 576.274 92.6593 576.608L91.7176 576.043C91.544 576.191 91.3756 576.345 91.197 576.486C90.9796 576.658 90.7525 576.818 90.5303 576.983Z"/>
	<path fill="#FEFEFE" transform="scale(1.03374 1.03374)" d="M689.288 475.196C700.698 474.629 711.235 476.071 720.703 482.914C730.675 490.12 736.17 500.259 738.117 512.278C740.012 523.972 737.578 535.549 730.486 545.158C723.142 555.107 712.418 560.454 700.408 562.218C687.721 563.153 675.2 560.959 665.189 552.651C655.851 544.903 650.862 533.871 649.812 521.887C648.844 510.837 652.368 498.949 659.541 490.443C667.248 481.301 677.486 476.26 689.288 475.196ZM693.424 493.232C686.635 493.777 681.119 495.936 676.578 501.258C671.626 507.062 669.749 514.386 670.499 521.877C671.143 528.313 674.141 534.457 679.164 538.602C684.054 542.638 689.569 543.707 695.703 544.04C702.845 542.93 708.948 540.88 713.304 534.668C717.688 528.418 718.881 519.212 717.334 511.803C716.032 505.566 712.748 500.408 707.284 497.025C702.953 494.344 698.441 493.462 693.424 493.232Z"/>
	<defs>
		<linearGradient id="gradient_1" gradientUnits="userSpaceOnUse" x1="282.5452" y1="604.37268" x2="193.08421" y2="484.2583">
			<stop offset="0" stop-color="#3ABBD2"/>
			<stop offset="1" stop-color="#79E4F3"/>
		</linearGradient>
	</defs>
	<path fill="url(#gradient_1)" transform="scale(1.03374 1.03374)" d="M272.758 398.915C286.43 398.4 297.844 400.03 308.247 409.747C317.036 417.955 321.187 428.837 321.538 440.733C322.21 463.473 321.566 486.392 321.699 509.151L321.781 541.21C321.77 547.844 322.337 555.102 320.978 561.628C319.069 570.802 314.138 579.799 307.673 586.552C300.481 594.065 290.003 599.672 279.449 599.884C258.187 600.311 240.84 594.31 224.099 611.294C219.905 615.548 209.302 630.606 203.567 630.585C202.85 630.582 202.025 630.329 201.365 630.07C193.066 626.814 184.277 608.581 169.997 602.384C163.256 599.459 157.043 599.428 149.816 599.465C125.788 599.589 109.564 601.491 93.0414 581.008C92.0507 579.779 91.0345 578.493 90.5303 576.983C90.7525 576.818 90.9796 576.658 91.197 576.486C91.3756 576.345 91.544 576.191 91.7176 576.043L92.6593 576.608C94.5151 576.274 95.5307 568.824 98.9601 567.278C100.082 566.773 100.596 566.638 101.363 565.628C102.829 568.231 104.439 570.853 106.353 573.154C120.618 590.299 141.464 583.373 160.732 585.158C180.131 586.954 192.108 595.023 204.142 609.6C207.097 604.661 211.557 600.159 216.009 596.553C242.08 575.434 270.662 592.322 291.392 580.724Q292.066 580.353 292.721 579.949Q293.376 579.546 294.01 579.11Q294.644 578.674 295.256 578.207Q295.867 577.74 296.455 577.244Q297.043 576.747 297.605 576.222Q298.167 575.696 298.703 575.144Q299.238 574.591 299.746 574.013Q300.253 573.435 300.731 572.832Q301.209 572.229 301.657 571.603Q302.104 570.977 302.52 570.33Q302.936 569.682 303.319 569.015Q303.702 568.348 304.052 567.662Q304.401 566.977 304.716 566.275Q305.031 565.573 305.311 564.856Q305.591 564.14 305.835 563.41Q306.079 562.68 306.286 561.939C308.681 553.447 307.411 543.425 307.405 534.618L307.084 488.029L307.132 456.828C307.141 451.007 307.446 445.01 306.836 439.224Q306.681 437.659 306.361 436.119Q306.041 434.579 305.56 433.082Q305.08 431.584 304.443 430.146Q303.807 428.708 303.022 427.345C298.736 419.921 292.267 416.164 284.238 413.986C288.366 413.636 290.895 414.997 294.513 416.74C294.53 416.659 294.549 416.579 294.565 416.498C295.451 411.868 297.095 408.847 299.508 404.885C293.621 401.783 288.161 400.306 281.515 399.821C278.549 399.604 275.645 399.722 272.758 398.915Z"/>
	<path fill="#FEFEFE" transform="scale(1.03374 1.03374)" d="M845.025 474.173C853.943 473.99 862.93 476.597 869.44 482.886C874.044 487.334 877.217 493.399 878.702 499.603C880.702 507.958 879.868 517.592 879.884 526.164L879.995 560.27C872.701 560.598 865.311 560.411 858.005 560.464L858.049 527.902C858.054 520.941 858.886 512.577 857.212 505.825C856.593 503.329 855.099 500.992 853.285 499.192Q852.768 498.68 852.204 498.221Q851.64 497.762 851.033 497.36Q850.427 496.959 849.784 496.618Q849.141 496.277 848.469 496.001Q847.796 495.725 847.099 495.516Q846.402 495.307 845.688 495.167Q844.974 495.027 844.25 494.958Q843.526 494.888 842.799 494.89C838.797 494.92 834.723 495.824 831.862 498.802C830.1 500.635 828.863 503.087 828.322 505.561C826.782 512.602 827.48 520.648 827.487 527.844L827.543 560.537L805.619 560.515L805.635 522.921C805.64 515.44 806.832 505.174 801.399 499.176C798.631 496.12 794.292 494.337 790.191 494.341C785.912 494.346 781.623 496.359 778.645 499.388C776.849 501.215 775.467 503.494 774.896 506.004C773.341 512.85 774.105 521.032 774.12 528.034Q774.128 544.534 774.309 561.033L751.874 561.127L751.995 476.292C758.514 476.373 765.042 476.372 771.55 476.802L771.662 482.956C777.513 478.557 783.669 475.131 791.065 474.334C798.382 473.546 805.957 474.969 812.125 479.106C814.317 480.576 816.102 482.6 818.238 484.122C819.236 484.833 819.787 485.071 820.934 484.515C823.403 483.317 825.748 480.938 828.046 479.359C832.677 476.177 839.528 474.763 845.025 474.173Z"/>
	<path fill="#FEFEFE" transform="scale(1.03374 1.03374)" d="M363.556 449.217C367.9 449.076 373.258 448.355 377.528 449.295C378.939 449.605 379.586 450.09 380.467 451.204C383.723 455.321 386.332 460.459 389.149 464.932C396.237 476.186 403.174 487.594 410.589 498.633C415.291 490.65 420.653 483.036 425.805 475.339C431.509 466.816 437.102 458.145 443.384 450.034C451.266 449.617 459.216 449.864 467.119 449.528L467.081 562.634C459.266 563.182 451.378 563.038 443.545 563.069C443.601 543.102 442.84 522.971 443.709 503.027L444.047 485.32C437.563 495.667 430.633 505.724 423.835 515.866C419.94 521.677 415.902 529.261 410.798 534.027C410.649 533.992 410.495 533.976 410.352 533.922C405.421 532.058 382.243 493.075 378.141 486.342L378.216 563.144L354.994 563.142C354.513 525.447 354.978 487.684 355 449.981C357.824 449.506 360.701 449.403 363.556 449.217Z"/>
	<path fill="#48CCDD" transform="scale(1.03374 1.03374)" d="M208.248 460.508C211.796 456.841 215.253 452.92 219.655 450.257C231.082 443.342 261.806 441.888 275.704 441.601C278.548 441.542 281.143 441.889 283.539 443.48C284.445 445.386 284.377 448.615 284.455 450.73C284.86 461.655 285.119 550.927 284.041 554.357C283.757 555.262 283.343 555.822 282.485 556.262C279.125 557.984 254.441 556.943 248.816 557.187C243.448 557.419 237.719 557.985 232.497 559.267C225.977 560.868 218.924 563.922 213.488 567.894C211.15 569.601 207.744 573.158 205.126 574.078C203.403 574.684 201.271 574.258 199.629 573.529C199.084 573.287 199.042 573.234 198.62 572.94C201.106 573.317 203.388 573.626 205.735 572.464C206.97 571.852 207.872 570.957 208.253 569.614C209.461 565.357 208.534 552.698 208.501 547.766C208.356 525.42 207.421 502.948 208.169 480.611C208.282 477.245 209.528 464.467 209.111 462.271C208.988 461.628 208.536 461.095 208.248 460.508Z"/>
	<path fill="#003055" transform="scale(1.03374 1.03374)" d="M251.297 513.216C251.483 513.203 251.668 513.186 251.854 513.177C256.28 512.948 265.331 512.297 268.699 515.262C269.083 516.422 269.154 516.93 268.567 518.12C267.996 519.281 267.423 519.363 266.222 519.46C262.885 519.729 259.378 518.957 256.013 518.934C246.713 518.87 237.296 520.679 228.454 523.442L227.643 523.768C224.349 525.063 221.456 526.715 218.419 528.525L214.801 524.187C223.918 516.139 239.64 513.964 251.297 513.216Z"/>
	<path fill="#003055" transform="scale(1.03374 1.03374)" d="M249.857 496.712C250.424 496.662 250.99 496.605 251.559 496.575C256.112 496.335 265.437 495.599 268.846 498.69C269.251 500.048 269.187 500.118 268.701 501.462C267.849 502.344 267.204 502.807 265.958 502.99C262.872 503.442 259.432 502.516 256.261 502.577C247.457 502.747 239.078 504.243 230.57 506.391C226.375 507.64 222.813 509.314 219.046 511.528C217.75 510.74 216.727 510.219 216.002 508.818C216.131 507.88 216.051 507.543 216.662 506.768C221.265 500.932 242.605 497.223 249.857 496.712Z"/>
	<path fill="#003055" transform="scale(1.03374 1.03374)" d="M252.5 463.711C257.41 463.597 264.999 463.108 269.175 466.018C269.721 466.998 270.05 467.52 269.527 468.683C268.975 469.912 268.276 470.448 266.959 470.527C263.904 470.711 260.315 469.976 257.183 469.915C247.466 469.726 238.554 470.918 229.149 473.392C225.573 474.664 222.297 476.393 218.942 478.152C217.468 476.641 216.422 475.084 215.336 473.279C225.662 465.743 240.123 464.414 252.5 463.711Z"/>
	<path fill="#003055" transform="scale(1.03374 1.03374)" d="M249.358 480.211C255.839 479.368 263.449 479.601 269.789 481.055L268.037 487.226C255.607 485.338 243.74 486.037 231.573 489.325C226.915 490.857 222.979 492.767 218.885 495.464C217.395 494.065 216.173 492.475 214.901 490.882C223.651 483.183 238.17 481.147 249.358 480.211Z"/>
	<path fill="#003055" transform="scale(1.03374 1.03374)" d="M246.792 529.697C252.561 529.064 260.124 528.668 265.81 529.819C267.677 530.197 268.648 530.698 269.664 532.315C269.682 533.075 269.643 533.559 269.246 534.226C268.724 535.106 268.361 535.902 267.257 536.055C264.58 536.427 260.829 535.474 258.006 535.436C249.528 535.322 241.366 536.392 233.158 538.454C231.041 539.124 228.834 539.777 226.812 540.693C224.39 541.792 221.143 544.849 218.496 544.636C217.127 543.821 216.257 543.282 215.401 541.872C215.406 540.754 215.349 540.418 216.086 539.502C220.422 534.113 239.956 530.414 246.792 529.697Z"/>
	<path fill="#FEFEFE" transform="scale(1.03374 1.03374)" d="M198.62 572.94C194.401 570.25 190.413 567.191 186.023 564.768C172.068 557.068 157.043 557.425 141.604 557.578C137.075 557.623 131.559 558.198 127.277 556.624C126.437 556.315 125.292 555.906 124.943 555.05C123.99 552.711 123.754 549.565 123.617 547.042C122.731 530.824 123.504 514.13 123.503 497.868C123.501 482.563 122.686 466.74 123.653 451.487C123.807 449.063 124.126 446.72 124.964 444.427L125.757 444.496L125.162 444.154C130.067 440.113 146.8 442.388 153.13 442.917C174.393 444.695 190.343 447.528 204.622 464.396L208.248 460.508C208.536 461.095 208.988 461.628 209.111 462.271C209.528 464.467 208.282 477.245 208.169 480.611C207.421 502.948 208.356 525.42 208.501 547.766C208.534 552.698 209.461 565.357 208.253 569.614C207.872 570.957 206.97 571.852 205.735 572.464C203.388 573.626 201.106 573.317 198.62 572.94Z"/>
	<path fill="#003055" transform="scale(1.03374 1.03374)" d="M145.908 480.549C152.736 480.537 159.725 480.75 166.491 481.696C174.194 482.773 189.127 485.269 194.04 491.744C194.403 493.537 193.965 493.981 193.234 495.615C189.56 495.389 184.269 492.341 180.712 491.004C173.352 488.238 166.203 486.942 158.362 486.779C155.01 486.71 148.164 487.54 145.683 485.204C145.257 483.516 145.566 482.232 145.908 480.549Z"/>
	<path fill="#003055" transform="scale(1.03374 1.03374)" d="M146.515 464.191C159.717 463.555 178.875 465.042 190.647 471.276C192.415 472.213 193.821 473.227 194.39 475.215C194.163 476.792 193.432 477.578 192.456 478.756C190.403 478.111 188.277 476.855 186.279 475.984C181.564 473.928 176.887 472.273 171.819 471.325C163.368 469.743 154.803 471.071 146.438 469.827C145.495 469.022 145.196 468.836 145.179 467.481C145.162 466.109 145.598 465.118 146.515 464.191Z"/>
	<path fill="#003055" transform="scale(1.03374 1.03374)" d="M147.31 530.181C159.41 530.339 182.114 532.359 191.741 540.601C192.922 541.612 193.456 542.453 193.599 544.042C193.124 545.53 192.441 546.095 191.293 547.054C180.283 541.295 171.868 537.52 159.281 536.526C155.137 536.199 150.062 536.689 146.142 535.412C145.315 534.423 144.956 534.127 145.133 532.737C145.316 531.294 146.154 530.793 147.31 530.181Z"/>
	<path fill="#003055" transform="scale(1.03374 1.03374)" d="M145.923 497.526C155.016 496.523 165.527 497.954 174.398 500.065C180.307 501.471 190.927 503.87 194.274 509.34C194.282 510.902 193.83 511.42 193.076 512.761C192.09 512.946 191.927 512.9 191.023 512.571C188.493 511.649 186.072 510.239 183.595 509.162C179.6 507.426 175.481 506.187 171.284 505.046C164.934 503.319 158.127 504.081 151.634 503.686C149.327 503.545 147.077 503.495 145.468 501.65C144.978 500.022 145.396 499.055 145.923 497.526Z"/>
	<path fill="#003055" transform="scale(1.03374 1.03374)" d="M146.148 513.553C152.836 513.566 159.757 513.97 166.371 514.964C173.835 516.086 189.383 519.557 193.959 525.809C194.262 527.488 193.905 527.771 193.16 529.256C190.298 530.08 183.584 526.059 180.669 524.877C173.847 522.108 167.356 520.48 159.997 520.217C156.479 520.091 152.821 520.39 149.341 519.814C147.693 519.541 146.674 519.193 145.654 517.783C145.353 516.141 145.651 515.127 146.148 513.553Z"/>
</svg>
